<svg width="50" height="50" viewBox="0 0 50 50" fill="none" xmlns="http://www.w3.org/2000/svg">
<rect opacity="0.58" width="50" height="50" fill="white"/>
<path d="M46.6667 6.66669V8.33335C47.5871 8.33335 48.3333 9.07961 48.3333 10V35H1.66667V10C1.66667 9.07961 2.41292 8.33335 3.33333 8.33335V6.66669C1.49251 6.66669 0 8.1592 0 10V38.3334C0 40.1742 1.49251 41.6667 3.33333 41.6667H19.7131L17.7132 48.3334H15.8333V50H34.1667V48.3334H32.2868L30.2869 41.6667H46.6667C48.5075 41.6667 50 40.1742 50 38.3334V10C50 8.1592 48.5075 6.66669 46.6667 6.66669ZM30.5465 48.3334H19.4535L21.4534 41.6667H28.5465L30.5465 48.3334ZM48.3333 38.3334C48.3333 39.2538 47.5871 40 46.6667 40H3.33333C2.41292 40 1.66667 39.2538 1.66667 38.3334V36.6667H48.3333V38.3334Z" fill="#CB8734"/>
<path d="M6.66665 3.33333C6.66665 2.41292 7.41291 1.66667 8.33332 1.66667H41.6666C42.5871 1.66667 43.3333 2.41292 43.3333 3.33333V33.3333H45V3.33333C45 1.49251 43.5075 0 41.6666 0H8.33332C6.4925 0 4.99998 1.49251 4.99998 3.33333V33.3333H6.66665V3.33333Z" fill="#CB8734"/>
<path d="M13.0408 27.4475L26.3741 32.4475C26.3835 32.4475 26.394 32.4475 26.4034 32.4524C26.488 32.4821 26.5767 32.4983 26.6667 32.5C26.7818 32.4975 26.8953 32.4711 26.9999 32.4227C27.0133 32.4166 27.0292 32.4227 27.0426 32.4125L37.0426 27.4125C37.3238 27.2705 37.5008 26.9816 37.5 26.6666V16.6666C37.4988 16.6105 37.4915 16.5547 37.4784 16.4998C37.4784 16.4909 37.4784 16.4807 37.4784 16.4717C37.4504 16.3647 37.4015 16.2646 37.3348 16.1767C37.3283 16.1682 37.3275 16.1568 37.321 16.1474L30.6543 7.8141C30.4089 7.50729 29.9825 7.4133 29.6309 7.58908L12.9643 15.9224C12.6807 16.0624 12.5012 16.3505 12.5 16.6666V26.6666C12.4996 27.0141 12.7153 27.3254 13.0408 27.4475ZM18.3683 27.6143V22.7299L20.035 23.3549V28.2426L18.3683 27.6143ZM35.8333 26.1515L27.5 30.3182V22.1818L35.8333 18.0151V26.1515ZM29.7701 9.37985L35.3715 16.3798L26.8966 20.6176L21.2952 13.6173L29.7701 9.37985ZM14.1667 17.1818L19.7701 14.3799L25.8333 21.9592V30.4642L21.7017 28.9168V22.7775C21.7017 22.43 21.486 22.1195 21.1609 21.9974L17.8276 20.7474C17.5716 20.6514 17.2852 20.6872 17.0605 20.8427C16.8359 20.9985 16.7017 21.254 16.7017 21.5275V27.0402L14.1667 26.0892V17.1818Z" fill="#CB8734"/>
<path d="M8.33374 30V32.5C8.33374 32.9602 8.70687 33.3334 9.16707 33.3334H11.6671V31.6667H10.0004V30H8.33374Z" fill="#CB8734"/>
<path d="M11.6671 6.66669H9.16707C8.70687 6.66669 8.33374 7.03982 8.33374 7.50002V10H10.0004V8.33335H11.6671V6.66669Z" fill="#CB8734"/>
<path d="M40.0004 31.6667H38.3337V33.3334H40.8337C41.2939 33.3334 41.6671 32.9602 41.6671 32.5V30H40.0004V31.6667Z" fill="#CB8734"/>
<path d="M41.6671 7.50002C41.6671 7.03982 41.2939 6.66669 40.8337 6.66669H38.3337V8.33335H40.0004V10H41.6671V7.50002Z" fill="#CB8734"/>
</svg>
