<svg width="50" height="50" viewBox="0 0 50 50" fill="none" xmlns="http://www.w3.org/2000/svg">
<rect opacity="0.58" width="49.9997" height="49.9251" fill="white"/>
<path d="M31.9972 49.9999C34.6696 50.0089 37.3161 49.4766 39.7765 48.4351C42.237 47.3936 44.4603 45.8646 46.312 43.9406C46.5783 43.6685 46.7688 43.3315 46.8645 42.9632C46.9602 42.5949 46.9578 42.208 46.8575 41.8409C46.7629 41.4804 46.5755 41.1509 46.314 40.8851C46.0524 40.6192 45.7258 40.4263 45.3666 40.3254C43.626 39.8271 42.0992 38.7683 41.0238 37.3138C39.9484 35.8592 39.3847 34.0905 39.4204 32.2829C39.5083 27.8447 43.1814 24.2579 47.6225 24.2579H47.6845L47.7657 24.2589C48.1449 24.2666 48.5195 24.1757 48.8529 23.9951C49.1863 23.8146 49.4669 23.5506 49.6673 23.2291C49.8673 22.913 49.9813 22.5503 49.9979 22.1767C50.0145 21.8032 49.9332 21.4318 49.762 21.0992C48.0961 17.8241 45.5545 15.0736 42.4188 13.1527C39.2832 11.2318 35.676 10.2155 31.9972 10.2164C26.7137 10.2164 21.6466 12.3121 17.9106 16.0426C14.1746 19.773 12.0757 24.8325 12.0757 30.1081C12.0757 35.3838 14.1746 40.4433 17.9106 44.1737C21.6466 47.9042 26.7137 49.9999 31.9972 49.9999ZM19.0061 17.1298C21.059 15.0845 23.5675 13.5534 26.3266 12.6617C29.0856 11.7699 32.0169 11.5428 34.8807 11.999C37.7445 12.4551 40.4596 13.5814 42.8039 15.286C45.1482 16.9906 47.0552 19.2249 48.369 21.8064C48.4172 21.8993 48.4401 22.0032 48.4353 22.1077C48.4306 22.2122 48.3984 22.3136 48.342 22.4018C48.2845 22.4951 48.2034 22.5716 48.1068 22.6237C48.0103 22.6758 47.9017 22.7016 47.792 22.6985L47.6968 22.6973H47.623C42.3359 22.6973 37.9626 26.9682 37.8584 32.252C37.8161 34.4039 38.4874 36.5095 39.7679 38.2409C41.0484 39.9724 42.8662 41.2326 44.9383 41.8255C45.0375 41.8533 45.1277 41.9067 45.1996 41.9803C45.2716 42.0539 45.323 42.1451 45.3485 42.2447C45.3776 42.3516 45.3782 42.4641 45.3503 42.5712C45.3223 42.6784 45.2669 42.7763 45.1893 42.8554C43.5015 44.589 41.4871 45.9722 39.2619 46.9256C37.0367 47.8789 34.6447 48.3835 32.2235 48.4103C29.8023 48.4371 27.3997 47.9856 25.1538 47.0819C22.908 46.1781 20.8633 44.8398 19.1374 43.144C17.4115 41.4483 16.0384 39.4285 15.0972 37.2009C14.1559 34.9733 13.665 32.5819 13.6528 30.1642C13.6406 27.7465 14.1073 25.3502 15.026 23.1133C15.9447 20.8763 17.2974 18.8428 19.0061 17.1298Z" fill="#CB8734"/>
<path d="M2.3437 13.0581V17.1615C2.34393 17.2226 2.35134 17.2834 2.36577 17.3427C0.729673 26.4864 0.219917 32.4352 1.47302 42.9955C1.72125 45.0878 2.04097 47.2039 2.42349 49.2848C2.45641 49.4643 2.55134 49.6267 2.69174 49.7435C2.83215 49.8604 3.00914 49.9244 3.19193 49.9244H7.65053C7.83326 49.9244 8.0102 49.8604 8.15057 49.7436C8.29095 49.6268 8.38589 49.4646 8.41887 49.2851C8.80138 47.204 9.12111 45.0879 9.36934 42.9958C10.6803 31.9473 10.1651 25.8265 8.59358 17.0927V13.0581C9.31671 12.5557 9.90749 11.8861 10.3156 11.1065C10.7237 10.327 10.937 9.46043 10.9373 8.58078C10.9373 8.47205 10.9169 5.89715 9.14601 4.12883C7.95296 2.93767 8.54836 1.04249 8.55354 1.02679C8.59501 0.902579 8.60451 0.76994 8.58115 0.641099C8.55779 0.512258 8.50232 0.391362 8.41986 0.289552C8.33741 0.187742 8.23061 0.108295 8.10932 0.0585329C7.98803 0.00877054 7.85614 -0.0097059 7.72582 0.00480647C3.74475 0.447495 1.84938 2.76927 0.960528 4.63841C0.3781 5.87466 0.0514089 7.21553 0 8.58078C0.000325846 9.46043 0.213618 10.327 0.621702 11.1065C1.02979 11.8861 1.62057 12.5557 2.3437 13.0581ZM7.81781 42.812C7.59887 44.6578 7.32329 46.5224 6.99752 48.3642H3.84504C3.51917 46.5223 3.24359 44.6577 3.02474 42.812C1.80992 32.5736 2.28433 26.7454 3.84611 17.9416H7.15806C8.62112 26.2193 9.07658 32.203 7.81781 42.812ZM7.03111 16.3815H3.90617V13.813C4.92551 14.1174 6.01177 14.1174 7.03111 13.813V16.3815ZM2.37192 5.30751C3.2721 3.41439 4.77617 2.21542 6.85113 1.73275C6.77838 2.71535 6.92603 4.11849 8.04115 5.23194C9.33702 6.52598 9.37423 8.53378 9.37481 8.58253C9.37313 9.55984 9.00446 10.501 8.34162 11.2201C7.67879 11.9392 6.76998 12.3839 5.79471 12.4665C5.05009 11.6341 4.71162 10.8523 4.79072 10.1397C4.90527 9.10664 5.87967 8.46425 5.88953 8.45791L5.05175 7.14096C4.98642 7.18211 3.44886 8.16948 3.24017 9.94628C3.16519 10.6558 3.29389 11.372 3.61126 12.0112C2.99222 11.6769 2.47509 11.1818 2.11448 10.5784C1.75386 9.97488 1.56315 9.28537 1.56247 8.58263C1.61304 7.44826 1.88816 6.33513 2.37192 5.30751Z" fill="#CB8734"/>
<path d="M36.7179 21.9175C37.3359 21.9175 37.9401 21.7345 38.454 21.3916C38.9679 21.0488 39.3684 20.5614 39.605 19.9913C39.8415 19.4211 39.9034 18.7938 39.7828 18.1885C39.6622 17.5832 39.3646 17.0272 38.9276 16.5908C38.4905 16.1545 37.9337 15.8573 37.3275 15.7369C36.7214 15.6165 36.093 15.6783 35.522 15.9145C34.951 16.1506 34.463 16.5506 34.1196 17.0637C33.7762 17.5768 33.593 18.1801 33.593 18.7972C33.5939 19.6245 33.9234 20.4176 34.5093 21.0026C35.0951 21.5875 35.8894 21.9166 36.7179 21.9175ZM36.7179 17.2371C37.0269 17.2371 37.329 17.3286 37.586 17.5C37.8429 17.6714 38.0432 17.9151 38.1614 18.2002C38.2797 18.4853 38.3106 18.7989 38.2503 19.1016C38.1901 19.4042 38.0412 19.6822 37.8227 19.9004C37.6042 20.1186 37.3258 20.2672 37.0227 20.3274C36.7196 20.3876 36.4055 20.3567 36.12 20.2386C35.8345 20.1205 35.5904 19.9205 35.4187 19.664C35.2471 19.4074 35.1554 19.1058 35.1554 18.7972C35.1559 18.3836 35.3207 17.987 35.6136 17.6945C35.9065 17.4021 36.3036 17.2375 36.7179 17.2371Z" fill="#CB8734"/>
<path d="M26.5617 22.6975C27.1798 22.6975 27.7839 22.5145 28.2978 22.1717C28.8117 21.8288 29.2123 21.3415 29.4488 20.7713C29.6853 20.2012 29.7472 19.5738 29.6266 18.9685C29.506 18.3633 29.2084 17.8073 28.7714 17.3709C28.3343 16.9345 27.7775 16.6373 27.1713 16.5169C26.5652 16.3965 25.9368 16.4583 25.3658 16.6945C24.7948 16.9307 24.3068 17.3306 23.9634 17.8437C23.62 18.3569 23.4368 18.9601 23.4368 19.5773C23.4377 20.4045 23.7672 21.1976 24.3531 21.7826C24.9389 22.3676 25.7332 22.6966 26.5617 22.6975ZM26.5617 18.0171C26.8707 18.0171 27.1728 18.1086 27.4298 18.2801C27.6867 18.4515 27.887 18.6951 28.0052 18.9802C28.1235 19.2653 28.1544 19.579 28.0942 19.8816C28.0339 20.1843 27.8851 20.4623 27.6665 20.6804C27.448 20.8986 27.1696 21.0472 26.8665 21.1074C26.5634 21.1676 26.2493 21.1367 25.9638 21.0186C25.6783 20.9006 25.4342 20.7006 25.2626 20.444C25.0909 20.1875 24.9992 19.8858 24.9992 19.5773C24.9997 19.1636 25.1645 18.7671 25.4574 18.4746C25.7503 18.1821 26.1475 18.0176 26.5617 18.0171Z" fill="#CB8734"/>
<path d="M23.4373 26.5978C23.4373 25.9807 23.254 25.3774 22.9106 24.8643C22.5672 24.3512 22.0792 23.9512 21.5082 23.7151C20.9372 23.4789 20.3089 23.4171 19.7027 23.5375C19.0965 23.6579 18.5397 23.9551 18.1027 24.3915C17.6656 24.8278 17.368 25.3838 17.2474 25.9891C17.1269 26.5944 17.1887 27.2218 17.4253 27.7919C17.6618 28.3621 18.0623 28.8494 18.5762 29.1922C19.0901 29.5351 19.6943 29.7181 20.3123 29.7181C21.1408 29.7172 21.9351 29.3881 22.521 28.8032C23.1068 28.2182 23.4363 27.4251 23.4373 26.5978ZM18.7499 26.5978C18.7499 26.2893 18.8415 25.9876 19.0132 25.7311C19.1849 25.4745 19.4289 25.2745 19.7144 25.1564C19.9999 25.0384 20.3141 25.0075 20.6172 25.0677C20.9202 25.1279 21.1986 25.2765 21.4172 25.4946C21.6357 25.7128 21.7845 25.9908 21.8448 26.2935C21.9051 26.5961 21.8741 26.9098 21.7559 27.1949C21.6376 27.4799 21.4373 27.7236 21.1804 27.895C20.9234 28.0665 20.6214 28.158 20.3123 28.158C19.8981 28.1575 19.5009 27.993 19.208 27.7005C18.9151 27.408 18.7503 27.0115 18.7499 26.5978Z" fill="#CB8734"/>
<path d="M21.8748 38.2989C22.4929 38.2989 23.0971 38.1159 23.611 37.773C24.1248 37.4302 24.5254 36.9429 24.7619 36.3727C24.9984 35.8025 25.0603 35.1752 24.9397 34.5699C24.8191 33.9646 24.5215 33.4086 24.0845 32.9723C23.6475 32.5359 23.0907 32.2387 22.4845 32.1183C21.8783 31.9979 21.25 32.0597 20.679 32.2959C20.108 32.532 19.6199 32.932 19.2765 33.4451C18.9332 33.9582 18.7499 34.5615 18.7499 35.1786C18.7508 36.0059 19.0804 36.799 19.6662 37.384C20.252 37.9689 21.0463 38.298 21.8748 38.2989ZM21.8748 33.6185C22.1839 33.6185 22.4859 33.71 22.7429 33.8814C22.9998 34.0528 23.2001 34.2965 23.3184 34.5816C23.4366 34.8667 23.4676 35.1804 23.4073 35.483C23.347 35.7856 23.1982 36.0636 22.9797 36.2818C22.7611 36.5 22.4827 36.6486 22.1797 36.7088C21.8766 36.769 21.5624 36.7381 21.2769 36.62C20.9914 36.5019 20.7474 36.302 20.5757 36.0454C20.404 35.7888 20.3124 35.4872 20.3124 35.1786C20.3128 34.765 20.4776 34.3684 20.7705 34.076C21.0634 33.7835 21.4606 33.619 21.8748 33.6185Z" fill="#CB8734"/>
<path d="M28.1242 38.2989C27.5061 38.2989 26.902 38.4819 26.3881 38.8247C25.8742 39.1676 25.4736 39.6549 25.2371 40.2251C25.0006 40.7952 24.9387 41.4226 25.0593 42.0279C25.1799 42.6331 25.4775 43.1891 25.9145 43.6255C26.3516 44.0619 26.9084 44.3591 27.5145 44.4794C28.1207 44.5998 28.749 44.5381 29.3201 44.3019C29.8911 44.0657 30.3791 43.6658 30.7225 43.1527C31.0659 42.6395 31.2491 42.0363 31.2491 41.4191C31.2482 40.5919 30.9187 39.7988 30.3328 39.2138C29.747 38.6288 28.9527 38.2998 28.1242 38.2989ZM28.1242 42.9793C27.8152 42.9793 27.5131 42.8878 27.2561 42.7163C26.9992 42.5449 26.7989 42.3012 26.6807 42.0162C26.5624 41.7311 26.5315 41.4174 26.5917 41.1148C26.652 40.8121 26.8008 40.5341 27.0194 40.3159C27.2379 40.0978 27.5163 39.9492 27.8194 39.889C28.1225 39.8288 28.4366 39.8597 28.7221 39.9778C29.0076 40.0958 29.2517 40.2958 29.4233 40.5524C29.595 40.8089 29.6867 41.1106 29.6867 41.4191C29.6862 41.8328 29.5214 42.2293 29.2285 42.5218C28.9356 42.8143 28.5384 42.9788 28.1242 42.9793Z" fill="#CB8734"/>
<path d="M33.593 42.9793C33.593 43.5964 33.7762 44.1997 34.1196 44.7128C34.463 45.2259 34.951 45.6259 35.522 45.862C36.093 46.0982 36.7214 46.16 37.3275 46.0396C37.9337 45.9192 38.4905 45.622 38.9276 45.1856C39.3646 44.7493 39.6622 44.1933 39.7828 43.588C39.9034 42.9827 39.8415 42.3554 39.605 41.7852C39.3684 41.215 38.9679 40.7277 38.454 40.3849C37.9401 40.042 37.3359 39.859 36.7179 39.859C35.8894 39.8599 35.0951 40.189 34.5093 40.7739C33.9234 41.3589 33.5939 42.152 33.593 42.9793ZM38.2804 42.9793C38.2804 43.2878 38.1887 43.5895 38.017 43.846C37.8454 44.1026 37.6013 44.3026 37.3158 44.4207C37.0303 44.5387 36.7162 44.5696 36.4131 44.5094C36.11 44.4492 35.8316 44.3007 35.6131 44.0825C35.3945 43.8643 35.2457 43.5863 35.1854 43.2836C35.1252 42.981 35.1561 42.6673 35.2744 42.3822C35.3926 42.0972 35.5929 41.8535 35.8498 41.6821C36.1068 41.5106 36.4089 41.4191 36.7179 41.4191C37.1321 41.4196 37.5293 41.5841 37.8222 41.8766C38.1151 42.1691 38.2799 42.5656 38.2804 42.9793Z" fill="#CB8734"/>
<path d="M27.343 28.9381C27.343 29.8638 27.6179 30.7687 28.133 31.5384C28.648 32.3081 29.3801 32.908 30.2366 33.2622C31.0931 33.6165 32.0356 33.7091 32.9449 33.5285C33.8541 33.3479 34.6893 32.9022 35.3449 32.2476C36.0004 31.593 36.4469 30.7591 36.6277 29.8512C36.8086 28.9433 36.7158 28.0022 36.361 27.147C36.0062 26.2917 35.4054 25.5607 34.6346 25.0465C33.8637 24.5322 32.9575 24.2577 32.0304 24.2577C30.7876 24.2591 29.5962 24.7526 28.7174 25.6301C27.8387 26.5075 27.3444 27.6972 27.343 28.9381ZM32.0304 25.8178C32.6484 25.8178 33.2526 26.0008 33.7665 26.3437C34.2804 26.6865 34.6809 27.1738 34.9175 27.744C35.154 28.3141 35.2159 28.9415 35.0953 29.5468C34.9747 30.1521 34.6771 30.7081 34.2401 31.1444C33.803 31.5808 33.2462 31.878 32.64 31.9984C32.0339 32.1188 31.4055 32.057 30.8345 31.8208C30.2635 31.5847 29.7755 31.1847 29.4321 30.6716C29.0887 30.1585 28.9055 29.5552 28.9055 28.9381C28.9064 28.1108 29.2359 27.3177 29.8218 26.7327C30.4076 26.1478 31.2019 25.8187 32.0304 25.8178Z" fill="#CB8734"/>
<path d="M13.1627 6.79697L15.4041 8.02099L16.6301 10.2591C16.6974 10.3819 16.7965 10.4844 16.9171 10.5558C17.0377 10.6271 17.1753 10.6648 17.3155 10.6648C17.4556 10.6648 17.5933 10.6271 17.7138 10.5558C17.8344 10.4844 17.9336 10.3819 18.0008 10.2591L19.2268 8.02099L21.4683 6.79697C21.5913 6.7298 21.6939 6.63081 21.7654 6.51039C21.8369 6.38997 21.8747 6.25255 21.8747 6.11256C21.8747 5.97256 21.8369 5.83514 21.7654 5.71472C21.6939 5.5943 21.5913 5.49531 21.4683 5.42814L19.2268 4.20402L18.0008 1.96591C17.9336 1.8431 17.8344 1.74064 17.7138 1.66926C17.5933 1.59788 17.4556 1.56021 17.3155 1.56021C17.1753 1.56021 17.0377 1.59788 16.9171 1.66926C16.7965 1.74064 16.6974 1.8431 16.6301 1.96591L15.4041 4.20402L13.1627 5.42805C13.0397 5.49522 12.937 5.5942 12.8655 5.71463C12.794 5.83505 12.7563 5.97246 12.7563 6.11246C12.7563 6.25245 12.794 6.38987 12.8655 6.51029C12.937 6.63071 13.0397 6.7297 13.1627 6.79687V6.79697ZM16.3547 5.46325C16.4858 5.39166 16.5935 5.28405 16.6652 5.15317L17.3155 3.966L17.9658 5.15317C18.0375 5.28405 18.1453 5.39166 18.2763 5.46325L19.4653 6.11256L18.2763 6.76177C18.1453 6.83335 18.0375 6.94096 17.9658 7.07184L17.3154 8.25901L16.6651 7.07184C16.5934 6.94096 16.4857 6.83335 16.3546 6.76177L15.1657 6.11256L16.3547 5.46325Z" fill="#CB8734"/>
</svg>
