<svg width="50" height="50" viewBox="0 0 50 50" fill="none" xmlns="http://www.w3.org/2000/svg">
<rect opacity="0.58" width="50" height="50" fill="white"/>
<path d="M41.5833 27.4255C41.5053 27.3475 41.4127 27.2856 41.3107 27.2433C41.2088 27.2011 41.0995 27.1794 40.9892 27.1794C40.8788 27.1794 40.7696 27.2011 40.6676 27.2433C40.5657 27.2856 40.4731 27.3475 40.3951 27.4255L39.4109 28.4097L38.5708 27.5696V24.1672C38.5707 22.0425 37.7267 20.0049 36.2244 18.5026C34.722 17.0003 32.6844 16.1563 30.5598 16.1563H30.5178L28.9395 14.578C27.3508 12.9807 25.215 12.0461 22.9637 11.9631L21.5896 10.589L22.5739 9.60485C22.6519 9.52684 22.7138 9.43422 22.756 9.33229C22.7982 9.23036 22.82 9.12112 22.82 9.01079C22.82 8.90046 22.7982 8.79121 22.756 8.68928C22.7138 8.58735 22.6519 8.49474 22.5739 8.41673L14.2568 0.0996704L13.0689 1.28748L20.7916 9.01005L8.9107 20.8909L1.18823 13.1687L0 14.3564L8.31653 22.6734C8.39455 22.7515 8.48717 22.8134 8.58911 22.8556C8.69104 22.8978 8.8003 22.9196 8.91064 22.9196C9.02098 22.9196 9.13025 22.8978 9.23218 22.8556C9.33412 22.8134 9.42674 22.7515 9.50476 22.6734L10.3201 21.858L11.6874 23.2253V27.0778C11.6872 27.4811 11.7838 27.8785 11.9691 28.2366C12.1544 28.5948 12.423 28.9032 12.7523 29.136C13.0815 29.3688 13.4619 29.5191 13.8613 29.5744C14.2608 29.6296 14.6677 29.5882 15.0478 29.4535V30.4382C15.0476 30.8415 15.1442 31.2389 15.3295 31.597C15.5148 31.9552 15.7834 32.2636 16.1127 32.4964C16.442 32.7292 16.8223 32.8796 17.2218 32.9348C17.6212 32.9901 18.0281 32.9486 18.4082 32.8139V33.7987C18.408 34.2019 18.5046 34.5993 18.69 34.9575C18.8753 35.3156 19.1438 35.6241 19.4731 35.8569C19.8024 36.0896 20.1828 36.24 20.5822 36.2952C20.9817 36.3505 21.3885 36.309 21.7686 36.1744V37.1591C21.7683 37.6694 21.923 38.1678 22.2123 38.5883C22.5015 39.0087 22.9116 39.3314 23.3883 39.5135C23.865 39.6957 24.3858 39.7288 24.8818 39.6084C25.3777 39.488 25.8253 39.2198 26.1654 38.8393H27.3015L28.1416 39.6794L27.3262 40.4948C27.2481 40.5728 27.1863 40.6655 27.144 40.7674C27.1018 40.8693 27.0801 40.9786 27.0801 41.0889C27.0801 41.1992 27.1018 41.3085 27.144 41.4104C27.1863 41.5123 27.2481 41.6049 27.3262 41.683L35.6432 50L36.831 48.8111L29.1083 41.0885L40.9895 29.2076L48.712 36.9302L49.9002 35.742L41.5833 27.4255ZM24.289 37.9989C24.0662 37.9986 23.8527 37.91 23.6952 37.7525C23.5377 37.595 23.4491 37.3815 23.4488 37.1588V30.4379H21.7686V33.7983C21.7686 34.0212 21.6801 34.2348 21.5226 34.3924C21.365 34.5499 21.1513 34.6385 20.9285 34.6385C20.7057 34.6385 20.492 34.5499 20.3345 34.3924C20.1769 34.2348 20.0884 34.0212 20.0884 33.7983V27.0775H18.4082V30.4379C18.4082 30.6607 18.3197 30.8744 18.1621 31.032C18.0046 31.1895 17.7909 31.278 17.5681 31.278C17.3453 31.278 17.1316 31.1895 16.9741 31.032C16.8165 30.8744 16.728 30.6607 16.728 30.4379V24.5572H15.0478V27.0775C15.0478 27.3003 14.9593 27.514 14.8017 27.6715C14.6442 27.8291 14.4305 27.9176 14.2077 27.9176C13.9849 27.9176 13.7712 27.8291 13.6136 27.6715C13.4561 27.514 13.3676 27.3003 13.3676 27.0775V22.877C13.3676 22.7666 13.3458 22.6574 13.3036 22.5555C13.2614 22.4535 13.1995 22.3609 13.1215 22.2829L11.5082 20.6696L20.4014 11.7764L22.0147 13.3892C22.0927 13.4672 22.1853 13.5291 22.2872 13.5714C22.3892 13.6136 22.4984 13.6354 22.6087 13.6354C23.5642 13.6328 24.5106 13.8197 25.3934 14.1853C26.2761 14.5509 27.0775 15.088 27.7512 15.7655L28.1415 16.1557H20.0884C19.8656 16.1557 19.6519 16.2442 19.4944 16.4017C19.3368 16.5593 19.2483 16.773 19.2483 16.9958C19.2506 18.386 19.7088 19.737 20.5526 20.8418C21.3964 21.9466 22.5793 22.7441 23.9198 23.1121L25.1291 23.4418V37.1588C25.1288 37.3815 25.0402 37.595 24.8827 37.7525C24.7252 37.91 24.5117 37.9986 24.289 37.9989ZM28.2434 37.4048C28.1654 37.3268 28.0728 37.2649 27.9709 37.2227C27.869 37.1805 27.7597 37.1588 27.6494 37.1588H26.8093V23.9004L28.4895 24.3587V24.5572C28.4907 25.6708 28.9337 26.7385 29.7212 27.526C30.5087 28.3135 31.5764 28.7565 32.69 28.7577C32.9128 28.7577 33.1265 28.6692 33.2841 28.5116C33.4416 28.3541 33.5301 28.1404 33.5301 27.9176C33.5301 27.6948 33.4416 27.4811 33.2841 27.3236C33.1265 27.166 32.9128 27.0775 32.69 27.0775C32.0218 27.0767 31.3812 26.811 30.9087 26.3385C30.4362 25.866 30.1705 25.2254 30.1697 24.5572V23.7171C30.1697 23.5327 30.109 23.3534 29.9971 23.2069C29.8851 23.0605 29.728 22.9549 29.5501 22.9065L24.3614 21.4914C23.5152 21.2588 22.7516 20.7926 22.1581 20.1462C21.5646 19.4998 21.1651 18.6993 21.0055 17.8363H30.5602C31.3916 17.8363 32.2148 18 32.9829 18.3181C33.751 18.6363 34.4489 19.1026 35.0368 19.6904C35.6246 20.2783 36.091 20.9762 36.4091 21.7443C36.7273 22.5124 36.891 23.3356 36.891 24.1669V27.9176C36.891 28.1404 36.9795 28.354 37.137 28.5116L38.2232 29.5978L29.33 38.4909L28.2434 37.4048Z" fill="#CB8734"/>
<path d="M5.99906 21.8427H4.31885V47.886C4.31885 48.1088 4.40736 48.3225 4.56491 48.4801C4.72246 48.6376 4.93614 48.7261 5.15895 48.7261H30.3622V47.0459H5.99906V21.8427Z" fill="#CB8734"/>
<path d="M44.6446 28.5636H46.3249V0.840107C46.3249 0.617297 46.2363 0.403612 46.0788 0.246062C45.9212 0.088511 45.7076 0 45.4848 0H17.7612V1.68021H44.6446V28.5636Z" fill="#CB8734"/>
<path d="M37.9237 4.2005C37.0929 4.2005 36.2808 4.44686 35.59 4.90842C34.8992 5.36998 34.3608 6.02601 34.0429 6.79356C33.725 7.56111 33.6418 8.40569 33.8039 9.22052C33.9659 10.0353 34.366 10.7838 34.9535 11.3713C35.5409 11.9587 36.2894 12.3588 37.1042 12.5209C37.919 12.6829 38.7636 12.5998 39.5312 12.2818C40.2987 11.9639 40.9547 11.4255 41.4163 10.7347C41.8779 10.044 42.1242 9.23182 42.1242 8.40103C42.123 7.28737 41.68 6.21967 40.8925 5.43219C40.105 4.64471 39.0373 4.20175 37.9237 4.2005ZM37.9237 10.9214C37.4252 10.9214 36.9379 10.7735 36.5235 10.4966C36.109 10.2197 35.786 9.82605 35.5952 9.36552C35.4045 8.90499 35.3545 8.39824 35.4518 7.90934C35.549 7.42045 35.7891 6.97137 36.1415 6.6189C36.494 6.26643 36.9431 6.02639 37.432 5.92914C37.9209 5.83189 38.4276 5.8818 38.8882 6.07256C39.3487 6.26332 39.7423 6.58635 40.0192 7.00082C40.2962 7.41528 40.444 7.90256 40.444 8.40103C40.4432 9.06923 40.1774 9.70983 39.705 10.1823C39.2325 10.6548 38.5919 10.9206 37.9237 10.9214Z" fill="#CB8734"/>
<path d="M0.958252 26.0433H2.63847V42.8455H0.958252V26.0433Z" fill="#CB8734"/>
<path d="M48.0042 4.2005H49.6844V22.6828H48.0042V4.2005Z" fill="#CB8734"/>
</svg>
