<svg width="50" height="50" viewBox="0 0 50 50" fill="none" xmlns="http://www.w3.org/2000/svg">
<rect opacity="0.58" width="50" height="49.9993" fill="white"/>
<path d="M44.6522 8.10547C44.6522 8.6034 44.2486 9.00703 43.7507 9.00703C43.2527 9.00703 42.8491 8.6034 42.8491 8.10547V2.92969C42.8491 2.34979 42.3774 1.87812 41.7975 1.87812H2.92973C2.34983 1.87812 1.87815 2.34979 1.87815 2.92969V47.0703C1.87815 47.6502 2.34983 48.1219 2.92973 48.1219H41.7975C42.3774 48.1219 42.8491 47.6502 42.8491 47.0703V44.3359C42.8491 43.838 43.2527 43.4344 43.7507 43.4344C44.2486 43.4344 44.6522 43.838 44.6522 44.3359V47.0703C44.6522 48.6443 43.3715 49.925 41.7975 49.925H2.92973C1.3557 49.925 0.075 48.6443 0.075 47.0703V2.92969C0.075 1.35568 1.3557 0.075 2.92973 0.075H41.7975C43.3715 0.075 44.6522 1.35568 44.6522 2.92969V8.10547Z" fill="#CB8734" stroke="white" stroke-width="0.15"/>
<path d="M6.64065 6.56563H6.56565V6.64063V26.0742C6.56565 26.5722 6.16202 26.9758 5.66408 26.9758C5.16613 26.9758 4.7625 26.5722 4.7625 26.0742V5.66406C4.7625 5.16613 5.16613 4.7625 5.66408 4.7625H39.0642C39.5621 4.7625 39.9658 5.16613 39.9658 5.66406V8.20313C39.9658 8.70106 39.5621 9.10469 39.0642 9.10469C38.5663 9.10469 38.1626 8.70105 38.1626 8.20313V6.64063V6.56563H38.0876H6.64065Z" fill="#CB8734" stroke="white" stroke-width="0.15"/>
<path d="M38.0876 43.4344H38.1626V43.3594V42.1875C38.1626 41.6896 38.5662 41.2859 39.0642 41.2859C39.5621 41.2859 39.9658 41.6896 39.9658 42.1875V44.3359C39.9658 44.8339 39.5621 45.2375 39.0642 45.2375H5.66408C5.16613 45.2375 4.7625 44.8339 4.7625 44.3359V33.4473C4.7625 32.9493 5.16613 32.5457 5.66408 32.5457C6.16202 32.5457 6.56565 32.9493 6.56565 33.4473V43.3594V43.4344H6.64065H38.0876Z" fill="#CB8734" stroke="white" stroke-width="0.15"/>
<path d="M26.9005 36.4886L26.9535 36.5417L27.0066 36.4886L28.9366 34.5585C29.2888 34.2064 29.8596 34.2064 30.2117 34.5585C30.5637 34.9107 30.5637 35.4816 30.2117 35.8336L28.2741 37.7711C27.9101 38.1352 27.432 38.3172 26.9535 38.3172C26.4751 38.3172 25.9969 38.1352 25.6329 37.7711C25.6329 37.7711 25.6329 37.7711 25.6329 37.7711L24.4332 36.5713L24.3801 36.5183L24.3271 36.5713L23.5539 37.3446C23.2017 37.6966 22.6308 37.6966 22.2788 37.3446C21.9267 36.9924 21.9267 36.4215 22.2787 36.0695L23.0594 35.2888C23.0594 35.2888 23.0594 35.2888 23.0594 35.2888C23.7877 34.5607 24.9725 34.5607 25.7008 35.2888L26.9005 36.4886Z" fill="#CB8734" stroke="white" stroke-width="0.15"/>
<path d="M42.3964 10.7108L42.3769 10.7832C41.6267 10.5821 40.8218 10.7074 40.1683 11.1264C40.1683 11.1264 40.1683 11.1264 40.1683 11.1264L42.3964 10.7108ZM42.3964 10.7108L42.377 10.7832C43.1269 10.9842 43.7616 11.4951 44.1181 12.1848C44.2903 12.5177 44.6417 12.7226 45.0183 12.7044C45.7941 12.6679 46.5537 12.9626 47.1027 13.5116C47.6516 14.0606 47.9458 14.8204 47.9098 15.596C47.8923 15.9706 48.0962 16.3238 48.4295 16.4961C49.1193 16.8526 49.6301 17.4873 49.8311 18.2372C50.0321 18.9872 49.9069 19.7924 49.4879 20.446C49.2854 20.7617 49.2854 21.1695 49.4879 21.4851C49.9069 22.1389 50.0321 22.944 49.8311 23.694C49.6301 24.444 49.1192 25.0787 48.4295 25.4352C48.0963 25.6074 47.8923 25.9606 47.9098 26.3353C47.9458 27.1109 47.6516 27.8706 47.1026 28.4197C46.5536 28.9687 45.7946 29.2635 45.0183 29.2268L45.0182 29.2268C44.644 29.2097 44.2904 29.4131 44.1181 29.7465C44.004 29.9673 43.861 30.1696 43.695 30.3496L43.6751 30.3711V30.4004V39.5208C43.6751 39.8851 43.4559 40.2135 43.1196 40.3533C43.0077 40.3999 42.8902 40.4225 42.7737 40.4225C42.5398 40.4225 42.31 40.3315 42.1376 40.16L39.7014 37.7365L39.6485 37.6839M42.3964 10.7108L39.6485 37.6839M39.6485 37.6839L39.5956 37.7365L37.1593 40.16C36.901 40.417 36.5135 40.4933 36.1773 40.3534L36.1485 40.4227L39.6485 37.6839ZM32.443 24.2943C32.4594 24.3099 32.4749 24.3263 32.4902 24.343L32.443 24.2943ZM32.443 24.2943C32.2369 24.0854 31.9982 23.9057 31.7298 23.7669L32.443 24.2943ZM38.115 29.224C37.9022 29.3604 37.6503 29.3995 37.4061 29.3341L41.9101 12.5249C41.6453 12.4539 41.3719 12.4965 41.1412 12.6443L41.1412 12.6443C40.2346 13.2258 39.0624 13.2258 38.1555 12.6443M38.115 29.224L38.1555 29.2871C37.9248 29.4349 37.6513 29.4773 37.3867 29.4066L37.3867 29.4066C37.1219 29.3357 36.9063 29.162 36.7804 28.9187L36.7804 28.9187C36.2858 27.9619 35.2715 27.3755 34.1948 27.4258L34.1947 27.4258C33.9217 27.4384 33.6629 27.3386 33.4692 27.1449C33.2753 26.951 33.1754 26.6929 33.1882 26.4191C33.2235 25.6599 32.9409 24.9317 32.4355 24.3944L32.4347 24.3936C32.4201 24.3775 32.4059 24.3625 32.3913 24.3486L32.3896 24.347L32.3896 24.3469C32.1888 24.1434 31.9563 23.9685 31.6954 23.8336C31.452 23.7078 31.2784 23.4922 31.2075 23.2274C31.1367 22.9628 31.1791 22.6892 31.327 22.4586C31.9084 21.5518 31.9084 20.3797 31.327 19.4729L31.327 19.4729C31.1792 19.2423 31.1367 18.9687 31.2075 18.704L31.28 18.7234L31.2075 18.704C31.2784 18.4393 31.4521 18.2237 31.6955 18.0979C32.6523 17.6032 33.2383 16.5882 33.1883 15.5122C33.1755 15.2385 33.2756 14.9804 33.4693 14.7866C33.663 14.5927 33.9217 14.493 34.1948 14.5056L34.1948 14.5056C35.2715 14.5555 36.286 13.9696 36.7805 13.0128C36.9063 12.7693 37.122 12.5957 37.3868 12.5249L37.3868 12.5249C37.6513 12.4541 37.9249 12.4964 38.1555 12.6443M38.115 29.224L38.1555 29.2871C38.6088 28.9965 39.1286 28.8511 39.6484 28.8511C40.1683 28.8511 40.6879 28.9964 41.1413 29.2871C41.3719 29.435 41.6456 29.4773 41.9101 29.4066L41.8907 29.3341L41.9101 29.4066C42.1748 29.3357 42.3905 29.1621 42.5163 28.9187C43.011 27.9618 44.0254 27.376 45.102 27.4258C45.3757 27.4383 45.6338 27.3386 45.8276 27.1449L45.7745 27.0918M38.115 29.224L45.7745 27.0918M38.1555 12.6443L38.115 12.7075L38.1555 12.6443C38.1555 12.6443 38.1555 12.6443 38.1555 12.6443ZM45.7745 27.0918L45.8276 27.1449C46.0213 26.951 46.1213 26.6929 46.1085 26.4192C46.0584 25.3432 46.6446 24.3282 47.6014 23.8336C47.8447 23.7078 48.0184 23.4921 48.0893 23.2275C48.1603 22.9627 48.1178 22.6891 47.9698 22.4585C47.3885 21.5517 47.3885 20.3796 47.9698 19.4729C48.1178 19.2423 48.1602 18.9687 48.0893 18.704C48.0184 18.4392 47.8448 18.2237 47.6015 18.0979L47.5671 18.1645L47.6015 18.0979C46.6445 17.6032 46.0585 16.5881 46.1085 15.5122C46.1213 15.2385 46.0214 14.9804 45.8276 14.7866C45.6338 14.5927 45.3758 14.4931 45.1021 14.5056L45.102 14.5056C44.0259 14.5558 43.011 13.9696 42.5163 13.0128L42.5163 13.0127M45.7745 27.0918L42.5163 13.0127M42.5163 13.0127C42.3904 12.7694 42.1749 12.5958 41.9101 12.5249L42.5163 13.0127ZM30.8677 16.4961L30.8333 16.4294L29.8092 21.4853C29.8446 21.4301 29.871 21.3726 29.8931 21.3164L29.9331 21.214H29.8232H12.283C11.7851 21.214 11.3814 20.8104 11.3814 20.3124C11.3814 19.8145 11.7851 19.4109 12.283 19.4109H29.3243H29.4102L29.3986 19.3257C29.3494 18.9651 29.3703 18.5948 29.4662 18.2372L29.3937 18.2178L29.4662 18.2372C29.6672 17.4872 30.1781 16.8526 30.8677 16.4961ZM41.744 37.2252L41.8719 37.3524V37.172V31.3126V31.2339L41.7933 31.2377L41.788 31.238C41.7448 31.2401 41.7038 31.242 41.6629 31.242C41.1376 31.242 40.6171 31.0928 40.1682 30.805C39.8525 30.6025 39.4447 30.6024 39.1289 30.805C38.6426 31.1166 38.0725 31.2653 37.5035 31.2385L37.425 31.2348V31.3134V37.172V37.3524L37.5529 37.2252L39.0126 35.773C39.3643 35.4231 39.9326 35.4231 40.2843 35.773L41.744 37.2252Z" fill="#CB8734" stroke="white" stroke-width="0.15"/>
<path d="M39.6172 21.6036L39.6702 21.6567L39.7232 21.6036L42.9646 18.3622C43.3166 18.0102 43.8875 18.0102 44.2396 18.3622C44.5917 18.7144 44.5916 19.2853 44.2396 19.6373L40.3076 23.5693L40.3076 23.5693C40.1316 23.7453 39.9009 23.8333 39.6701 23.8333C39.4393 23.8333 39.2087 23.7453 39.0326 23.5693L37.0517 21.5884C36.6996 21.2362 36.6996 20.6654 37.0517 20.3133C37.4039 19.9612 37.9747 19.9613 38.3268 20.3133L39.6172 21.6036Z" fill="#CB8734" stroke="white" stroke-width="0.15"/>
<path d="M18.4094 28.7859H29.5739C30.0718 28.7859 30.4753 29.1896 30.4753 29.6875C30.4753 30.1854 30.0717 30.5891 29.5738 30.5891H18.4094C17.9115 30.5891 17.5079 30.1854 17.5079 29.6875C17.5079 29.1896 17.9115 28.7859 18.4094 28.7859Z" fill="#CB8734" stroke="white" stroke-width="0.15"/>
</svg>
